<mxfile host="app.diagrams.net" modified="2023-04-16T09:51:36.143Z" agent="Mozilla/5.0 (Macintosh; Intel Mac OS X 10_15_7) AppleWebKit/605.1.15 (KHTML, like Gecko) Version/16.4 Safari/605.1.15" etag="wY4gz9QYVy1A2ZqzXqt5" version="21.1.8" type="github">
  <diagram name="Page-1" id="FFNUs5i6vEV03rCKP-XE">
    <mxGraphModel dx="954" dy="675" grid="1" gridSize="10" guides="1" tooltips="1" connect="1" arrows="1" fold="1" page="1" pageScale="1" pageWidth="827" pageHeight="1169" math="0" shadow="0">
      <root>
        <mxCell id="0" />
        <mxCell id="1" parent="0" />
        <mxCell id="eU8pRurztz_gBzVK209F-8" style="edgeStyle=orthogonalEdgeStyle;rounded=0;orthogonalLoop=1;jettySize=auto;html=1;exitX=1;exitY=0.5;exitDx=0;exitDy=0;entryX=0;entryY=0.5;entryDx=0;entryDy=0;" parent="1" source="eU8pRurztz_gBzVK209F-2" target="eU8pRurztz_gBzVK209F-5" edge="1">
          <mxGeometry relative="1" as="geometry" />
        </mxCell>
        <mxCell id="eU8pRurztz_gBzVK209F-2" value="WAIT_FOT_START&lt;br&gt;0, 0, 0" style="ellipse;whiteSpace=wrap;html=1;" parent="1" vertex="1">
          <mxGeometry x="10" y="72" width="120" height="80" as="geometry" />
        </mxCell>
        <mxCell id="eU8pRurztz_gBzVK209F-11" style="edgeStyle=orthogonalEdgeStyle;rounded=0;orthogonalLoop=1;jettySize=auto;html=1;exitX=0;exitY=0.5;exitDx=0;exitDy=0;entryX=1;entryY=0.5;entryDx=0;entryDy=0;" parent="1" source="eU8pRurztz_gBzVK209F-3" target="eU8pRurztz_gBzVK209F-4" edge="1">
          <mxGeometry relative="1" as="geometry" />
        </mxCell>
        <mxCell id="eU8pRurztz_gBzVK209F-30" style="edgeStyle=orthogonalEdgeStyle;rounded=0;orthogonalLoop=1;jettySize=auto;html=1;exitX=0;exitY=0;exitDx=0;exitDy=0;entryX=1;entryY=1;entryDx=0;entryDy=0;curved=1;" parent="1" source="eU8pRurztz_gBzVK209F-3" target="eU8pRurztz_gBzVK209F-2" edge="1">
          <mxGeometry relative="1" as="geometry">
            <Array as="points">
              <mxPoint x="588" y="272" />
              <mxPoint x="112" y="272" />
            </Array>
          </mxGeometry>
        </mxCell>
        <mxCell id="eU8pRurztz_gBzVK209F-3" value="WAIT_FOR_STOP&lt;br&gt;0, 1, 0" style="ellipse;whiteSpace=wrap;html=1;" parent="1" vertex="1">
          <mxGeometry x="570" y="312" width="120" height="80" as="geometry" />
        </mxCell>
        <mxCell id="eU8pRurztz_gBzVK209F-12" style="edgeStyle=orthogonalEdgeStyle;rounded=0;orthogonalLoop=1;jettySize=auto;html=1;exitX=0;exitY=0.5;exitDx=0;exitDy=0;entryX=0.5;entryY=1;entryDx=0;entryDy=0;curved=1;" parent="1" source="eU8pRurztz_gBzVK209F-4" target="eU8pRurztz_gBzVK209F-2" edge="1">
          <mxGeometry relative="1" as="geometry" />
        </mxCell>
        <mxCell id="eU8pRurztz_gBzVK209F-4" value="VALIDATING&lt;br&gt;0, X, 1" style="ellipse;whiteSpace=wrap;html=1;" parent="1" vertex="1">
          <mxGeometry x="290" y="312" width="120" height="80" as="geometry" />
        </mxCell>
        <mxCell id="eU8pRurztz_gBzVK209F-9" style="edgeStyle=orthogonalEdgeStyle;rounded=0;orthogonalLoop=1;jettySize=auto;html=1;exitX=1;exitY=0.5;exitDx=0;exitDy=0;entryX=0;entryY=0.5;entryDx=0;entryDy=0;" parent="1" source="eU8pRurztz_gBzVK209F-5" target="eU8pRurztz_gBzVK209F-6" edge="1">
          <mxGeometry relative="1" as="geometry" />
        </mxCell>
        <mxCell id="eU8pRurztz_gBzVK209F-5" value="WAIT_FOR_DATA&lt;br&gt;0, 1, 0" style="ellipse;whiteSpace=wrap;html=1;" parent="1" vertex="1">
          <mxGeometry x="290" y="72" width="120" height="80" as="geometry" />
        </mxCell>
        <mxCell id="eU8pRurztz_gBzVK209F-10" style="edgeStyle=orthogonalEdgeStyle;rounded=0;orthogonalLoop=1;jettySize=auto;html=1;exitX=0.5;exitY=1;exitDx=0;exitDy=0;entryX=0.5;entryY=0;entryDx=0;entryDy=0;" parent="1" source="eU8pRurztz_gBzVK209F-6" target="eU8pRurztz_gBzVK209F-3" edge="1">
          <mxGeometry relative="1" as="geometry" />
        </mxCell>
        <mxCell id="eU8pRurztz_gBzVK209F-6" value="READING_DATA&lt;br&gt;1, 1, 0" style="ellipse;whiteSpace=wrap;html=1;" parent="1" vertex="1">
          <mxGeometry x="570" y="72" width="120" height="80" as="geometry" />
        </mxCell>
        <mxCell id="eU8pRurztz_gBzVK209F-16" style="edgeStyle=orthogonalEdgeStyle;rounded=0;orthogonalLoop=1;jettySize=auto;html=1;exitX=1;exitY=1;exitDx=0;exitDy=0;entryX=0;entryY=1;entryDx=0;entryDy=0;startArrow=classic;startFill=1;endArrow=none;endFill=0;" parent="1" source="eU8pRurztz_gBzVK209F-3" target="eU8pRurztz_gBzVK209F-3" edge="1">
          <mxGeometry relative="1" as="geometry">
            <mxPoint x="671.99" y="382" as="sourcePoint" />
            <mxPoint x="588" y="382" as="targetPoint" />
            <Array as="points">
              <mxPoint x="672" y="434" />
              <mxPoint x="588" y="434" />
            </Array>
          </mxGeometry>
        </mxCell>
        <mxCell id="eU8pRurztz_gBzVK209F-17" style="edgeStyle=orthogonalEdgeStyle;rounded=0;orthogonalLoop=1;jettySize=auto;html=1;exitX=1;exitY=0;exitDx=0;exitDy=0;entryX=0;entryY=0;entryDx=0;entryDy=0;" parent="1" source="eU8pRurztz_gBzVK209F-5" target="eU8pRurztz_gBzVK209F-5" edge="1">
          <mxGeometry relative="1" as="geometry">
            <Array as="points">
              <mxPoint x="393" y="32" />
              <mxPoint x="307" y="32" />
            </Array>
          </mxGeometry>
        </mxCell>
        <mxCell id="eU8pRurztz_gBzVK209F-18" style="edgeStyle=orthogonalEdgeStyle;rounded=0;orthogonalLoop=1;jettySize=auto;html=1;exitX=1;exitY=0;exitDx=0;exitDy=0;entryX=0;entryY=0;entryDx=0;entryDy=0;" parent="1" source="eU8pRurztz_gBzVK209F-6" target="eU8pRurztz_gBzVK209F-6" edge="1">
          <mxGeometry relative="1" as="geometry">
            <Array as="points">
              <mxPoint x="673" y="32" />
              <mxPoint x="587" y="32" />
            </Array>
          </mxGeometry>
        </mxCell>
        <mxCell id="eU8pRurztz_gBzVK209F-19" style="edgeStyle=orthogonalEdgeStyle;rounded=0;orthogonalLoop=1;jettySize=auto;html=1;exitX=1;exitY=0;exitDx=0;exitDy=0;entryX=0;entryY=0;entryDx=0;entryDy=0;" parent="1" source="eU8pRurztz_gBzVK209F-2" target="eU8pRurztz_gBzVK209F-2" edge="1">
          <mxGeometry relative="1" as="geometry">
            <Array as="points">
              <mxPoint x="113" y="32" />
              <mxPoint x="28" y="32" />
            </Array>
          </mxGeometry>
        </mxCell>
        <mxCell id="eU8pRurztz_gBzVK209F-22" value="else" style="text;html=1;align=center;verticalAlign=middle;resizable=0;points=[];autosize=1;strokeColor=none;fillColor=none;" parent="1" vertex="1">
          <mxGeometry x="325" y="10" width="50" height="30" as="geometry" />
        </mxCell>
        <mxCell id="eU8pRurztz_gBzVK209F-23" value="else" style="text;html=1;align=center;verticalAlign=middle;resizable=0;points=[];autosize=1;strokeColor=none;fillColor=none;" parent="1" vertex="1">
          <mxGeometry x="45" y="10" width="50" height="30" as="geometry" />
        </mxCell>
        <mxCell id="eU8pRurztz_gBzVK209F-24" value="else" style="text;html=1;align=center;verticalAlign=middle;resizable=0;points=[];autosize=1;strokeColor=none;fillColor=none;" parent="1" vertex="1">
          <mxGeometry x="605" y="402" width="50" height="30" as="geometry" />
        </mxCell>
        <mxCell id="eU8pRurztz_gBzVK209F-25" value="else" style="text;html=1;align=center;verticalAlign=middle;resizable=0;points=[];autosize=1;strokeColor=none;fillColor=none;" parent="1" vertex="1">
          <mxGeometry x="605" y="10" width="50" height="30" as="geometry" />
        </mxCell>
        <mxCell id="eU8pRurztz_gBzVK209F-27" value="DIN == 0" style="text;html=1;align=center;verticalAlign=middle;resizable=0;points=[];autosize=1;strokeColor=none;fillColor=none;" parent="1" vertex="1">
          <mxGeometry x="170" y="82" width="70" height="30" as="geometry" />
        </mxCell>
        <mxCell id="eU8pRurztz_gBzVK209F-28" value="CLK_CNT == 23" style="text;html=1;align=center;verticalAlign=middle;resizable=0;points=[];autosize=1;strokeColor=none;fillColor=none;" parent="1" vertex="1">
          <mxGeometry x="430" y="82" width="110" height="30" as="geometry" />
        </mxCell>
        <mxCell id="eU8pRurztz_gBzVK209F-29" value="BIT_CNT == 8" style="text;html=1;align=center;verticalAlign=middle;resizable=0;points=[];autosize=1;strokeColor=none;fillColor=none;rotation=0;" parent="1" vertex="1">
          <mxGeometry x="620" y="212" width="100" height="30" as="geometry" />
        </mxCell>
        <mxCell id="eU8pRurztz_gBzVK209F-31" value="CLK_CNT == 15; DIN == 1" style="text;html=1;align=center;verticalAlign=middle;resizable=0;points=[];autosize=1;strokeColor=none;fillColor=none;" parent="1" vertex="1">
          <mxGeometry x="410" y="322" width="170" height="30" as="geometry" />
        </mxCell>
        <mxCell id="eU8pRurztz_gBzVK209F-32" value="CLK_CNT == 15; DIN == 0" style="text;html=1;align=center;verticalAlign=middle;resizable=0;points=[];autosize=1;strokeColor=none;fillColor=none;" parent="1" vertex="1">
          <mxGeometry x="285" y="242" width="170" height="30" as="geometry" />
        </mxCell>
      </root>
    </mxGraphModel>
  </diagram>
</mxfile>
